<?xml version="1.0" standalone="no"?>
<!DOCTYPE svg PUBLIC "-//W3C//DTD SVG 20010904//EN"
 "http://www.w3.org/TR/2001/REC-SVG-20010904/DTD/svg10.dtd">
<svg version="1.0" xmlns="http://www.w3.org/2000/svg"
 width="900.000000pt" height="315.000000pt" viewBox="0 0 900.000000 315.000000"
 preserveAspectRatio="xMidYMid meet">
<metadata>
Created by potrace 1.10, written by Peter Selinger 2001-2011
</metadata>
<g transform="translate(0.000000,315.000000) scale(0.100000,-0.100000)"
fill="#ffffff" stroke="none">
<path d="M3620 2920 c-104 -18 -159 -31 -211 -51 -29 -11 -67 -25 -84 -31 -87
-32 -207 -119 -287 -208 -69 -78 -84 -104 -116 -205 l-22 -70 2 -925 3 -925
310 0 310 0 5 840 c5 815 6 841 25 880 11 21 39 54 63 72 43 32 45 33 148 33
109 0 127 -5 182 -54 59 -52 57 -15 62 -931 l5 -840 310 0 310 0 3 934 c2 818
0 937 -13 957 -8 13 -15 30 -15 37 0 24 -41 108 -76 156 -115 157 -284 257
-549 322 -59 14 -301 21 -365 9z"/>
<path d="M8680 2920 c-25 -4 -78 -13 -119 -19 -71 -11 -142 -30 -186 -51 -11
-5 -42 -19 -70 -31 -80 -34 -206 -133 -245 -192 -19 -29 -41 -56 -47 -60 -7
-4 -13 -13 -13 -19 0 -6 -11 -35 -25 -63 -34 -73 -54 -135 -61 -191 -4 -27
-13 -61 -20 -76 -8 -15 -14 -38 -14 -51 0 -12 -4 -27 -9 -33 -5 -5 -13 -34
-19 -64 -13 -66 -30 -134 -44 -175 -6 -16 -14 -55 -18 -85 -4 -30 -12 -66 -18
-80 -20 -50 -43 -141 -69 -275 -3 -16 -10 -35 -15 -42 -5 -6 -13 -38 -18 -71
-11 -81 -55 -167 -105 -206 -57 -46 -102 -63 -181 -71 -38 -4 -75 -12 -81 -17
-10 -8 -13 -76 -13 -279 0 -252 1 -269 19 -278 10 -6 21 -7 25 -4 4 4 57 10
120 14 62 4 128 11 147 17 19 6 69 20 111 32 42 12 100 32 127 46 28 13 53 24
56 24 2 0 35 20 72 44 77 50 186 159 209 208 8 18 23 47 32 63 23 38 62 158
62 190 0 13 4 26 9 29 5 4 12 25 16 49 12 82 37 192 51 225 8 18 14 46 14 63
0 37 27 151 46 197 8 18 14 43 14 55 0 35 31 170 46 199 8 14 14 41 14 60 0
39 23 119 48 167 42 83 148 154 248 166 33 3 66 10 72 14 8 5 12 85 12 281 0
151 0 281 0 288 0 13 -101 15 -180 2z"/>
<path d="M125 2908 c-3 -7 -4 -551 -3 -1208 l3 -1195 594 -3 c413 -1 598 1
607 9 10 8 13 66 14 243 0 128 -2 240 -6 249 -5 15 -34 17 -275 17 -264 0
-268 0 -283 22 -14 19 -15 133 -16 942 0 719 -3 922 -13 928 -6 4 -148 8 -315
8 -233 0 -304 -3 -307 -12z"/>
<path d="M5225 2911 c-3 -6 -5 -549 -5 -1208 l0 -1198 322 0 323 0 5 405 c5
425 5 427 52 488 43 58 141 78 227 45 72 -28 104 -69 120 -159 7 -36 11 -196
11 -413 -1 -195 3 -358 8 -363 4 -4 148 -7 318 -6 l309 3 0 510 c0 550 2 528
-54 640 -33 68 -136 149 -204 161 -36 7 -138 34 -149 40 -9 6 28 98 61 154 5
8 47 92 94 185 46 94 97 195 112 225 15 30 32 64 38 74 5 10 51 100 102 200
50 100 95 191 99 204 l7 22 -329 0 -329 0 -28 -55 c-15 -31 -32 -58 -36 -61
-5 -3 -9 -16 -9 -29 0 -13 -4 -26 -9 -30 -6 -3 -19 -24 -30 -48 -36 -77 -173
-360 -233 -482 -69 -140 -83 -157 -117 -153 l-26 3 -5 425 c-3 234 -7 426 -8
428 -7 7 -632 1 -637 -7z"/>
<path d="M1978 2838 c-18 -29 -35 -57 -38 -63 -3 -5 -18 -30 -33 -53 -34 -53
-30 -72 16 -72 19 0 39 -6 45 -12 6 -9 7 -236 3 -668 -5 -589 -8 -655 -22
-658 -9 -1 -42 21 -75 51 -32 29 -97 87 -144 129 -58 51 -87 84 -91 104 -4 16
-7 80 -8 142 l-1 113 35 32 c19 18 41 48 49 68 14 34 14 39 -7 80 -16 32 -35
51 -68 68 -42 23 -49 24 -79 11 -19 -8 -49 -27 -67 -43 -29 -26 -33 -35 -33
-81 0 -43 5 -57 28 -82 16 -17 35 -33 43 -36 11 -4 14 -32 14 -145 0 -120 3
-144 18 -160 9 -11 17 -25 17 -31 0 -6 79 -83 176 -171 98 -88 185 -174 195
-190 15 -25 16 -42 11 -117 l-7 -87 -50 -27 c-122 -65 -162 -213 -85 -318 35
-48 122 -92 185 -92 55 0 142 38 175 76 43 50 74 159 52 187 -5 6 -12 24 -16
39 -7 31 -86 104 -134 124 l-34 14 4 265 3 265 55 53 c30 29 103 94 162 145
200 173 208 186 208 356 0 121 6 136 52 136 39 0 48 25 48 130 0 132 2 130
-133 130 -62 0 -119 -4 -127 -10 -11 -6 -15 -35 -18 -108 -4 -116 4 -142 48
-142 16 0 32 -5 36 -12 4 -6 6 -68 5 -137 l-2 -126 -52 -50 c-111 -105 -252
-225 -265 -225 -5 0 -11 6 -13 13 -2 6 -2 233 1 502 l5 490 40 5 c51 6 55 25
18 82 -33 51 -41 64 -72 117 -14 23 -28 41 -32 41 -4 0 -22 -24 -41 -52z"/>
</g>
</svg>
