<?xml version="1.0" standalone="no"?>
<!DOCTYPE svg PUBLIC "-//W3C//DTD SVG 20010904//EN"
 "http://www.w3.org/TR/2001/REC-SVG-20010904/DTD/svg10.dtd">
<svg version="1.0" xmlns="http://www.w3.org/2000/svg"
 width="900.000000pt" height="882.000000pt" viewBox="0 0 900.000000 882.000000"
 preserveAspectRatio="xMidYMid meet">
<metadata>
Created by potrace 1.10, written by Peter Selinger 2001-2011
</metadata>
<g transform="translate(0.000000,882.000000) scale(0.100000,-0.100000)"
fill="#ffffff" stroke="none">
<path d="M4155 8805 c-7 -9 -44 -18 -113 -25 -57 -6 -115 -15 -129 -21 -13 -5
-53 -9 -87 -9 -35 0 -83 -7 -106 -15 -23 -8 -57 -15 -76 -15 -18 0 -45 -5 -61
-11 -15 -7 -46 -15 -68 -20 -322 -64 -856 -259 -1125 -410 -50 -27 -204 -121
-265 -159 -13 -8 -44 -28 -69 -43 -124 -75 -376 -268 -526 -403 -362 -325
-677 -710 -880 -1079 -18 -33 -45 -78 -58 -100 -62 -97 -163 -318 -241 -525
-18 -47 -36 -94 -41 -105 -41 -94 -147 -489 -170 -631 -5 -34 -14 -74 -20 -88
-5 -15 -10 -47 -10 -71 0 -25 -6 -77 -14 -117 -35 -173 -59 -716 -36 -806 6
-24 13 -93 16 -155 3 -62 12 -134 20 -161 8 -27 14 -73 14 -102 0 -29 5 -65
10 -80 6 -14 15 -54 20 -88 29 -182 131 -545 194 -689 9 -21 16 -42 16 -48 0
-6 6 -25 14 -42 8 -18 42 -98 76 -179 34 -81 68 -152 76 -159 8 -6 14 -18 14
-25 0 -7 21 -48 46 -91 25 -43 60 -103 77 -133 16 -30 50 -86 75 -125 25 -38
66 -101 90 -140 165 -256 478 -607 762 -856 84 -74 322 -254 420 -319 36 -23
76 -50 90 -59 14 -10 32 -20 40 -24 8 -4 29 -16 45 -27 17 -11 37 -23 45 -27
8 -3 29 -17 45 -29 17 -12 41 -28 55 -34 14 -6 52 -26 85 -45 33 -19 67 -37
75 -41 8 -3 22 -10 30 -15 8 -5 22 -12 30 -15 8 -4 42 -19 75 -34 53 -24 236
-98 335 -135 119 -44 131 -48 275 -90 33 -10 78 -24 100 -31 23 -8 54 -14 70
-14 17 -1 41 -7 55 -15 14 -8 39 -14 56 -15 17 0 48 -7 67 -15 20 -8 55 -15
77 -15 23 0 51 -5 63 -12 12 -7 60 -15 107 -19 47 -3 112 -11 145 -17 160 -29
268 -34 565 -29 308 6 446 16 510 36 19 6 60 11 90 11 30 0 71 5 90 11 19 6
58 15 85 19 49 7 100 18 200 45 86 22 139 36 175 44 19 5 46 13 60 18 14 6 52
18 85 28 33 9 78 24 100 32 22 8 57 21 78 29 91 34 119 45 237 94 150 63 230
98 250 111 8 5 24 13 36 18 27 12 299 176 351 212 23 16 44 29 47 29 9 0 285
201 346 252 337 283 573 532 795 841 46 64 95 135 107 156 13 21 60 99 105
172 131 215 221 389 278 539 10 25 21 54 26 65 9 22 40 112 94 270 39 115 95
324 120 440 9 44 23 109 31 145 8 36 14 81 14 100 0 19 7 62 15 95 8 33 15 87
15 120 0 33 7 105 15 160 19 132 19 475 0 615 -8 58 -15 131 -15 162 0 31 -7
83 -15 115 -8 31 -15 78 -15 104 0 26 -4 59 -10 73 -5 15 -14 52 -19 84 -21
119 -76 338 -111 442 -5 14 -18 59 -30 100 -13 41 -26 79 -31 84 -5 6 -9 16
-9 23 0 17 -81 226 -119 308 -71 152 -119 242 -229 424 -48 79 -96 159 -107
178 -114 193 -366 498 -605 732 -129 126 -409 362 -495 416 -16 10 -34 22 -40
27 -34 28 -105 78 -111 78 -3 0 -32 17 -63 38 -71 49 -280 172 -291 172 -5 0
-10 4 -12 8 -6 17 -307 153 -480 218 -21 8 -56 21 -78 29 -99 37 -119 44 -175
60 -33 10 -75 24 -93 31 -18 8 -40 14 -48 14 -9 0 -37 7 -63 15 -25 8 -73 21
-106 29 -33 8 -82 20 -110 26 -27 7 -72 16 -100 20 -27 4 -66 13 -85 19 -19 6
-60 11 -90 11 -30 0 -71 5 -90 11 -19 5 -82 14 -140 20 -72 6 -108 14 -116 24
-17 22 -614 22 -629 0z m595 -200 c193 -13 271 -22 415 -47 33 -5 85 -14 115
-18 30 -4 68 -13 83 -19 16 -6 43 -11 60 -11 18 -1 43 -7 57 -15 14 -8 36 -14
50 -15 22 0 63 -11 155 -42 17 -5 44 -13 60 -18 37 -10 89 -29 132 -47 17 -7
37 -13 45 -13 8 0 23 -7 34 -15 10 -8 28 -15 39 -15 11 0 29 -7 39 -15 11 -8
28 -15 37 -15 10 0 30 -7 46 -15 43 -22 162 -75 169 -75 10 0 232 -113 292
-149 29 -17 55 -31 58 -31 9 0 232 -149 339 -228 246 -180 296 -223 535 -462
165 -165 289 -306 361 -410 13 -19 29 -40 35 -46 30 -33 249 -372 299 -462 47
-85 137 -269 175 -357 29 -68 70 -171 70 -178 0 -5 6 -23 14 -40 8 -18 22 -57
31 -87 10 -30 24 -70 31 -88 8 -18 14 -40 14 -50 0 -9 7 -30 15 -46 8 -15 15
-38 15 -50 1 -11 7 -32 15 -46 8 -14 14 -40 15 -58 0 -18 5 -43 12 -55 6 -12
15 -42 19 -67 3 -25 11 -65 17 -90 12 -47 33 -174 54 -325 17 -120 18 -870 1
-970 -26 -157 -35 -213 -42 -271 -5 -34 -11 -67 -16 -73 -4 -7 -11 -36 -15
-64 -9 -57 -26 -125 -42 -172 -5 -16 -14 -46 -18 -65 -4 -19 -13 -48 -19 -65
-6 -16 -27 -77 -46 -135 -120 -367 -245 -624 -461 -952 -68 -102 -129 -192
-136 -200 -7 -7 -24 -29 -37 -48 -72 -104 -197 -246 -371 -420 -223 -224 -268
-263 -440 -388 -69 -50 -130 -96 -137 -102 -19 -15 -233 -160 -238 -160 -3 0
-34 -18 -71 -40 -70 -43 -314 -170 -326 -170 -8 0 -124 -51 -171 -75 -16 -8
-36 -15 -46 -15 -9 0 -26 -7 -37 -15 -10 -8 -27 -15 -36 -15 -9 0 -29 -6 -45
-14 -36 -18 -152 -61 -208 -76 -16 -5 -43 -13 -60 -18 -92 -30 -135 -42 -156
-42 -13 -1 -35 -7 -49 -15 -14 -8 -39 -14 -57 -15 -17 0 -44 -5 -60 -11 -15
-6 -53 -15 -83 -19 -30 -4 -80 -12 -110 -18 -382 -74 -1004 -74 -1380 0 -30 5
-82 14 -115 18 -65 8 -142 25 -190 42 -16 6 -48 14 -70 18 -63 13 -127 32
-162 46 -17 8 -39 14 -50 14 -10 0 -27 7 -37 15 -11 8 -31 15 -45 15 -14 0
-35 7 -45 15 -11 8 -28 15 -37 15 -10 0 -30 6 -46 14 -56 28 -104 46 -121 46
-10 0 -22 4 -27 9 -6 5 -50 26 -100 46 -201 82 -508 254 -657 367 -42 32 -80
58 -83 58 -9 0 -189 135 -265 198 -219 183 -504 485 -681 722 -57 76 -229 328
-229 336 0 2 -20 37 -44 77 -52 86 -172 324 -210 417 -15 36 -31 74 -35 85 -5
11 -15 36 -23 55 -9 19 -19 50 -22 67 -4 18 -12 35 -17 38 -5 4 -9 16 -9 28 0
12 -7 35 -15 51 -8 15 -15 33 -15 38 0 6 -6 24 -14 41 -8 18 -16 43 -19 57 -3
14 -10 39 -15 55 -6 17 -17 55 -25 85 -100 364 -136 645 -136 1065 -1 244 7
372 34 570 27 202 34 240 44 268 6 16 11 40 11 55 0 24 12 69 42 157 6 17 14
48 19 70 8 41 31 119 42 145 10 25 38 103 44 125 3 11 11 34 19 52 8 17 14 36
14 42 0 6 7 27 16 48 9 21 20 47 25 58 4 11 20 49 35 85 94 233 269 532 479
824 208 288 567 648 867 869 43 31 80 57 83 57 2 0 40 26 83 58 42 31 86 62
97 69 248 152 404 234 585 307 63 26 128 53 143 61 16 8 36 15 46 15 9 0 26 7
37 15 10 8 31 15 45 15 15 0 32 7 39 15 7 8 25 15 39 15 15 0 36 7 47 15 10 8
28 15 39 15 11 0 33 7 49 15 15 8 36 15 45 15 15 0 31 4 157 44 29 9 63 16 77
16 14 0 38 5 54 11 15 6 55 15 88 19 33 4 85 13 115 19 109 21 298 42 455 50
238 12 281 12 505 -4z"/>
<path d="M925 5378 c-3 -7 -4 -553 -3 -1213 l3 -1200 501 -3 c439 -2 503 0
514 13 9 11 13 81 14 266 2 224 1 251 -14 259 -9 5 -123 7 -253 4 -220 -4
-238 -3 -253 14 -13 16 -15 117 -15 926 1 609 -2 914 -9 927 -10 18 -23 19
-246 19 -178 0 -236 -3 -239 -12z"/>
<path d="M4153 5383 c-13 -2 -23 -9 -23 -14 0 -5 -9 -9 -21 -9 -20 0 -78 -22
-109 -41 -8 -5 -26 -15 -40 -22 -35 -17 -65 -42 -141 -117 -87 -86 -119 -130
-161 -220 -47 -101 -65 -162 -72 -240 -3 -36 -6 -443 -6 -904 -1 -680 1 -841
12 -847 7 -5 115 -9 240 -9 171 0 229 3 235 13 4 6 6 377 5 822 -3 718 -2 818
13 880 10 45 25 81 41 98 37 40 120 79 168 79 50 0 121 -30 161 -69 62 -59 60
-17 65 -958 l5 -860 245 0 245 0 0 900 c-1 901 -3 967 -35 1010 -4 6 -10 22
-14 37 -7 31 -58 117 -114 194 -47 65 -153 158 -212 186 -25 12 -56 29 -70 39
-56 38 -156 59 -279 58 -64 -1 -126 -4 -138 -6z"/>
<path d="M5245 5378 c-3 -7 -4 -553 -3 -1213 l3 -1200 229 -3 c127 -1 234 2
239 7 5 5 8 185 8 411 l0 402 24 24 c28 28 49 29 124 9 60 -16 103 -50 134
-110 20 -38 21 -57 23 -385 2 -190 3 -348 3 -353 1 -4 112 -6 249 -5 l247 3 0
380 c0 388 -2 411 -41 503 -8 18 -14 40 -14 48 0 39 -90 164 -188 262 -97 97
-103 105 -94 130 5 15 24 74 42 132 17 58 36 119 42 135 5 17 19 59 30 95 11
36 26 79 34 97 8 17 14 36 14 43 0 15 29 111 40 131 5 9 12 34 16 55 3 22 10
44 14 49 4 6 17 44 30 85 12 41 28 90 36 108 8 18 14 41 14 51 0 10 7 35 16
56 28 67 35 65 -271 65 l-275 0 0 -22 c0 -13 -7 -36 -15 -52 -8 -15 -15 -38
-15 -51 0 -12 -11 -57 -24 -101 -13 -43 -43 -160 -66 -259 -39 -166 -68 -245
-90 -245 -30 0 -35 50 -40 385 l-5 340 -233 3 c-181 2 -234 0 -237 -10z"/>
<path d="M7750 5373 c-25 -8 -58 -21 -75 -28 -16 -7 -37 -16 -45 -19 -78 -31
-209 -138 -269 -220 -47 -64 -111 -178 -111 -198 0 -9 -7 -29 -15 -44 -8 -16
-15 -39 -15 -51 0 -12 -5 -34 -11 -50 -7 -15 -15 -75 -20 -133 -8 -103 -19
-196 -40 -315 -5 -33 -14 -98 -18 -145 -5 -47 -14 -114 -20 -150 -15 -92 -32
-225 -38 -290 -8 -97 -58 -176 -130 -207 -22 -9 -80 -18 -135 -21 -81 -4 -98
-7 -98 -21 -4 -162 -1 -501 4 -510 11 -17 224 -15 257 3 14 7 43 16 65 20 21
4 81 28 132 54 93 47 105 57 238 202 45 50 74 100 124 215 17 40 39 173 44
265 5 89 12 149 50 430 9 63 23 171 31 240 34 270 44 320 65 349 28 40 78 81
99 81 9 0 22 5 28 11 7 7 51 13 105 14 51 1 96 3 101 4 4 0 6 119 5 264 l-3
262 -130 2 c-96 1 -142 -2 -175 -14z"/>
<path d="M2712 5333 c-6 -15 -29 -61 -52 -101 l-41 -72 28 -11 c15 -6 35 -15
43 -19 13 -6 16 -95 20 -676 3 -368 1 -677 -3 -686 -4 -10 -16 -18 -26 -18
-21 0 -278 262 -292 297 -5 13 -9 78 -9 143 l0 119 41 47 c39 45 41 50 37 101
-5 63 -34 99 -85 109 -45 9 -78 -1 -107 -33 -50 -54 -46 -120 12 -179 l37 -38
6 -141 c4 -103 10 -149 22 -176 10 -19 90 -107 178 -195 88 -87 167 -171 175
-187 11 -20 14 -54 12 -120 l-3 -92 -34 -17 c-46 -23 -75 -50 -107 -98 -68
-102 -15 -257 105 -311 55 -24 87 -24 144 1 142 63 172 259 56 368 -19 18 -42
32 -51 32 -10 0 -25 11 -33 24 -13 20 -16 61 -15 262 1 132 4 254 7 271 4 26
41 68 169 195 208 206 214 217 214 384 0 130 1 134 55 151 l30 10 5 107 c3 60
2 112 -1 117 -3 6 -57 8 -120 7 l-114 -3 0 -115 0 -115 25 -3 c53 -8 60 -25
60 -147 0 -83 -4 -120 -16 -144 -23 -46 -273 -293 -293 -289 -14 3 -16 51 -19
506 -1 328 1 510 8 522 6 11 26 22 45 26 19 3 35 9 35 12 0 3 -18 38 -41 76
-22 39 -46 82 -54 96 -19 35 -41 36 -53 3z"/>
</g>
</svg>
