<?xml version="1.0" standalone="no"?>
<!DOCTYPE svg PUBLIC "-//W3C//DTD SVG 20010904//EN"
 "http://www.w3.org/TR/2001/REC-SVG-20010904/DTD/svg10.dtd">
<svg version="1.0" xmlns="http://www.w3.org/2000/svg"
 width="443.000000pt" height="155.000000pt" viewBox="0 0 443.000000 155.000000"
 preserveAspectRatio="xMidYMid meet">

<g transform="translate(0.000000,155.000000) scale(0.100000,-0.100000)"
fill="#000000" stroke="none">
<path d="M1760 1440 c-153 -29 -290 -131 -320 -238 -6 -23 -10 -212 -10 -494
l0 -458 160 0 160 0 0 413 c0 226 3 421 6 433 19 70 189 70 208 0 3 -12 6
-207 6 -433 l0 -413 160 0 160 0 0 458 c0 508 -1 514 -65 589 -76 89 -196 142
-335 148 -47 2 -105 0 -130 -5z"/>
<path d="M4240 1439 c-150 -22 -269 -103 -316 -214 -8 -21 -47 -164 -86 -319
-38 -154 -76 -292 -83 -307 -21 -39 -41 -52 -103 -64 l-57 -12 -3 -142 -3
-143 38 6 c21 3 63 8 93 12 102 12 213 64 272 128 50 53 75 116 117 297 95
413 96 414 152 448 17 10 48 22 70 25 l39 6 0 145 0 145 -37 -1 c-21 -1 -63
-5 -93 -10z"/>
<path d="M60 845 l0 -595 300 0 300 0 5 23 c3 12 5 69 3 127 l-3 105 -140 5
-140 5 -2 400 c-2 220 -3 428 -3 463 l0 62 -160 0 -160 0 0 -595z"/>
<path d="M2570 845 l0 -595 165 0 165 0 0 200 c0 210 5 239 46 260 30 17 92 6
118 -20 20 -19 21 -34 24 -230 l3 -210 165 0 166 0 -4 253 c-4 265 -9 298 -56
351 -23 25 -90 56 -124 56 -16 0 -28 5 -28 11 0 6 58 126 129 265 l129 254
-169 0 -168 0 -102 -210 c-57 -117 -108 -210 -116 -210 -10 0 -13 42 -13 210
l0 210 -165 0 -165 0 0 -595z"/>
<path d="M958 1370 l-37 -60 31 0 31 0 -8 -327 c-4 -181 -9 -330 -11 -332 -2
-2 -37 26 -79 63 l-75 68 0 71 c0 61 3 74 20 85 30 18 26 66 -6 91 -33 26 -45
26 -78 0 -32 -25 -34 -61 -4 -91 17 -17 21 -32 19 -70 -3 -68 14 -111 57 -149
20 -17 63 -56 95 -85 55 -52 57 -56 57 -104 0 -45 -3 -51 -29 -65 -41 -20 -61
-53 -61 -95 1 -61 47 -100 120 -100 32 0 48 6 70 29 16 16 32 40 35 53 10 40
-19 95 -59 115 l-36 17 0 112 c0 62 4 123 9 137 5 13 47 56 93 97 101 88 118
116 118 192 0 51 2 58 20 58 18 0 20 7 20 65 l0 65 -65 0 -65 0 0 -65 c0 -58
2 -65 20 -65 18 0 20 -7 20 -68 l0 -68 -62 -55 c-35 -30 -71 -60 -80 -68 -17
-13 -18 0 -18 238 l0 251 25 0 c14 0 25 2 25 5 0 7 -68 115 -72 115 -2 0 -20
-27 -40 -60z"/>
</g>
</svg>
